<?xml version="1.0" encoding="utf-8"?>
<!-- Generator: Adobe Illustrator 15.0.0, SVG Export Plug-In . SVG Version: 6.00 Build 0)  -->
<!DOCTYPE svg PUBLIC "-//W3C//DTD SVG 1.1//EN" "http://www.w3.org/Graphics/SVG/1.1/DTD/svg11.dtd">
<svg version="1.1" id="Layer_1" xmlns="http://www.w3.org/2000/svg" xmlns:xlink="http://www.w3.org/1999/xlink" x="0px" y="0px"
	 width="22px" height="22px" viewBox="0 0 22 22" style="enable-background:new 0 0 22 22;" xml:space="preserve">
<style type="text/css">
<![CDATA[
	.st0{fill:#FFFFFF;}
]]>
</style>
<g>
	<path class="st0" d="M18.001,0.5H4C2.067,0.5,0.5,2.067,0.5,4v14c0,1.933,1.566,3.5,3.5,3.5h7v-9.188H8.375V9.688H11V7.719
		c0-1.812,1.469-3.281,3.281-3.281h3.281v2.625h-3.281c-0.361,0-0.656,0.294-0.656,0.656v1.969h3.609l-0.656,2.625h-2.953V21.5
		h4.376c1.932,0,3.499-1.567,3.499-3.5V4C21.5,2.067,19.934,0.5,18.001,0.5z"/>
</g>
</svg>
