<?xml version="1.0" encoding="utf-8"?>
<!-- Generator: Adobe Illustrator 15.0.0, SVG Export Plug-In . SVG Version: 6.00 Build 0)  -->
<!DOCTYPE svg PUBLIC "-//W3C//DTD SVG 1.1//EN" "http://www.w3.org/Graphics/SVG/1.1/DTD/svg11.dtd">
<svg version="1.1" id="Layer_1" xmlns="http://www.w3.org/2000/svg" xmlns:xlink="http://www.w3.org/1999/xlink" x="0px" y="0px"
	 width="22px" height="22px" viewBox="0 0 22 22" style="enable-background:new 0 0 22 22;" xml:space="preserve">
<style type="text/css">
<![CDATA[
	.st0{fill:#FFFFFF;}
]]>
</style>
<g>
	<path class="st0" d="M11,0.758c-5.799,0-10.5,4.702-10.5,10.5c0,4.641,3.008,8.578,7.181,9.967
		c0.525,0.095,0.718-0.229,0.718-0.508c0-0.249-0.01-1.076-0.015-1.953c-2.921,0.635-3.538-1.24-3.538-1.24
		c-0.477-1.215-1.164-1.536-1.164-1.536c-0.953-0.651,0.072-0.639,0.072-0.639c1.053,0.074,1.607,1.081,1.607,1.081
		c0.938,1.604,2.457,1.14,3.057,0.872c0.094-0.679,0.365-1.141,0.666-1.405c-2.332-0.266-4.783-1.166-4.783-5.188
		c0-1.147,0.41-2.083,1.082-2.818C5.273,7.626,4.914,6.559,5.484,5.113c0,0,0.883-0.282,2.888,1.075
		C9.209,5.956,10.107,5.839,11,5.835c0.893,0.004,1.791,0.121,2.629,0.354c2.006-1.357,2.885-1.075,2.885-1.075
		c0.572,1.445,0.212,2.514,0.103,2.777c0.673,0.734,1.081,1.672,1.081,2.818c0,4.033-2.456,4.922-4.794,5.182
		c0.377,0.326,0.712,0.965,0.712,1.945c0,1.404-0.015,2.536-0.015,2.881c0,0.281,0.19,0.609,0.724,0.506
		c4.17-1.392,7.176-5.324,7.176-9.965C21.5,5.46,16.799,0.758,11,0.758z"/>
</g>
</svg>
