<?xml version="1.0" encoding="utf-8"?>
<!-- Generator: Adobe Illustrator 15.0.0, SVG Export Plug-In . SVG Version: 6.00 Build 0)  -->
<!DOCTYPE svg PUBLIC "-//W3C//DTD SVG 1.1//EN" "http://www.w3.org/Graphics/SVG/1.1/DTD/svg11.dtd">
<svg version="1.1" id="Layer_1" xmlns="http://www.w3.org/2000/svg" xmlns:xlink="http://www.w3.org/1999/xlink" x="0px" y="0px"
	 width="129px" height="40px" viewBox="0 0 129 40" style="enable-background:new 0 0 129 40;" xml:space="preserve">
<style type="text/css">
<![CDATA[
	.st0{fill:#008000;}
	.st1{fill:#00C800;}
	.st2{fill:#00F800;}
]]>
</style>
<g>
	<g>
		<rect x="1.5" y="33" class="st0" width="2" height="5"/>
		<polygon class="st0" points="17.5,16 12.5,16 10.5,16 10.5,18 10.5,21 12.5,21 12.5,18 17.5,18 17.5,17 19.5,17 19.5,14 17.5,14 
					"/>
		<rect x="19.5" y="11" class="st0" width="2" height="3"/>
		<rect x="21.5" y="8" class="st0" width="5" height="3"/>
		<rect x="26.5" y="6" class="st0" width="8" height="2"/>
		<rect x="34.5" y="8" class="st0" width="5" height="2"/>
		<rect x="39.5" y="6" class="st0" width="2" height="2"/>
		<rect x="41.5" y="4" class="st0" width="5" height="2"/>
		<rect x="46.5" y="2" class="st0" width="5" height="2"/>
		<rect x="59.5" y="4" class="st0" width="5" height="2"/>
		<rect x="64.5" y="2" class="st0" width="5" height="2"/>
		<polygon class="st0" points="124.5,25 124.5,22 124.5,20 116.5,20 116.5,18 114.5,18 114.5,16 109.5,16 109.5,20 114.5,20 
			114.5,22 116.5,22 116.5,25 122.5,25 122.5,33 120.5,33 120.5,38 124.5,38 124.5,33 126.5,33 126.5,25 		"/>
		<rect x="51.5" y="4" class="st0" width="2" height="10"/>
		<rect x="55.5" y="8" class="st0" width="2" height="2"/>
		<rect x="57.5" y="6" class="st0" width="2" height="2"/>
		<rect x="77.5" y="4" class="st0" width="5" height="2"/>
		<rect x="82.5" y="2" class="st0" width="5" height="2"/>
		<rect x="69.5" y="4" class="st0" width="2" height="10"/>
		<rect x="73.5" y="8" class="st0" width="2" height="2"/>
		<rect x="75.5" y="6" class="st0" width="2" height="2"/>
		<rect x="95.5" y="4" class="st0" width="5" height="2"/>
		<rect x="100.5" y="2" class="st0" width="5" height="2"/>
		<rect x="87.5" y="4" class="st0" width="2" height="10"/>
		<rect x="105.5" y="4" class="st0" width="2" height="10"/>
		<rect x="91.5" y="8" class="st0" width="2" height="2"/>
		<rect x="93.5" y="6" class="st0" width="2" height="2"/>
		<rect x="107.5" y="14" class="st0" width="2" height="2"/>
		<polygon class="st0" points="8.5,28 5.5,28 3.5,28 3.5,33 5.5,33 5.5,30 8.5,30 10.5,30 10.5,28 10.5,21 8.5,21 		"/>
	</g>
	<g>
		<rect x="3.5" y="33" class="st1" width="2" height="5"/>
		<polygon class="st1" points="10.5,23 10.5,30 7.5,30 5.5,30 5.5,33 7.5,33 7.5,32 10.5,32 12.5,32 12.5,30 12.5,23 12.5,21 
			10.5,21 		"/>
		<polygon class="st1" points="17.5,18 12.5,18 12.5,20 17.5,20 17.5,19 19.5,19 19.5,17 17.5,17 		"/>
		<rect x="26.5" y="8" class="st1" width="8" height="2"/>
		<rect x="34.5" y="10" class="st1" width="5" height="2"/>
		<rect x="39.5" y="8" class="st1" width="2" height="2"/>
		<rect x="41.5" y="6" class="st1" width="5" height="2"/>
		<polygon class="st1" points="116.5,25 116.5,22 114.5,22 114.5,20 109.5,20 109.5,25 112.5,25 112.5,27 118.5,27 118.5,33 
			116.5,33 116.5,38 120.5,38 120.5,33 122.5,33 122.5,27 122.5,25 		"/>
		<polygon class="st1" points="46.5,6 49.5,6 49.5,12 51.5,12 51.5,6 51.5,4 46.5,4 		"/>
		<rect x="52.5" y="14" class="st1" width="3" height="2"/>
		<rect x="55.5" y="10" class="st1" width="2" height="2"/>
		<rect x="57.5" y="8" class="st1" width="2" height="2"/>
		<rect x="59.5" y="6" class="st1" width="5" height="2"/>
		<polygon class="st1" points="64.5,6 67.5,6 67.5,12 69.5,12 69.5,6 69.5,4 64.5,4 		"/>
		<rect x="70.5" y="14" class="st1" width="3" height="2"/>
		<rect x="73.5" y="10" class="st1" width="2" height="2"/>
		<rect x="75.5" y="8" class="st1" width="2" height="2"/>
		<rect x="77.5" y="6" class="st1" width="5" height="2"/>
		<polygon class="st1" points="82.5,6 85.5,6 85.5,12 87.5,12 87.5,6 87.5,4 82.5,4 		"/>
		<rect x="88.5" y="14" class="st1" width="3" height="2"/>
		<rect x="91.5" y="10" class="st1" width="2" height="2"/>
		<rect x="93.5" y="8" class="st1" width="2" height="2"/>
		<rect x="95.5" y="6" class="st1" width="5" height="2"/>
		<polygon class="st1" points="105.5,12 105.5,6 105.5,4 100.5,4 100.5,6 103.5,6 103.5,12 		"/>
		<rect x="107.5" y="16" class="st1" width="2" height="2"/>
		<rect x="105.5" y="14" class="st1" width="2" height="2"/>
		<polygon class="st1" points="21.5,14 19.5,14 19.5,17 21.5,17 21.5,15 26.5,15 26.5,10 21.5,10 		"/>
	</g>
	<g>
		<path class="st2" d="M41.5,8"/>
		<polygon class="st2" points="118.5,33 118.5,27 112.5,27 112.5,25 109.5,25 109.5,18 107.5,18 107.5,16 107.5,14 105.5,14 
			107.5,14 107.5,16 105.5,16 105.5,12 103.5,12 103.5,6 100.5,6 100.5,8 95.5,8 95.5,10 93.5,10 93.5,12 91.5,12 91.5,16 88.5,16 
			88.5,14 87.5,14 87.5,12 85.5,12 85.5,6 82.5,6 82.5,8 77.5,8 77.5,10 75.5,10 75.5,12 73.5,12 73.5,16 70.5,16 70.5,14 69.5,14 
			69.5,12 67.5,12 67.5,6 64.5,6 64.5,8 59.5,8 59.5,10 57.5,10 57.5,12 55.5,12 55.5,16 52.5,16 52.5,14 51.5,14 51.5,12 49.5,12 
			49.5,6 46.5,6 46.5,8 41.5,8 41.5,10 39.5,10 39.5,12 34.5,12 34.5,10 26.5,10 26.5,15 21.5,15 21.5,17 19.5,17 19.5,19 17.5,19 
			17.5,20 12.5,20 12.5,21 12.5,23 12.5,30 12.5,32 10.5,32 7.5,32 7.5,33 5.5,33 5.5,38 116.5,38 116.5,33 		"/>
	</g>
	<g>
		<rect x="1.5" y="28" width="2" height="5"/>
		<rect x="8.5" y="16" width="2" height="5"/>
		<rect x="17.5" y="11" width="2" height="3"/>
		<rect x="19.5" y="8" width="2" height="3"/>
		<rect x="21.5" y="6" width="5" height="2"/>
		<rect x="26.5" y="4" width="8" height="2"/>
		<rect x="34.5" y="6" width="5" height="2"/>
		<rect x="39.5" y="4" width="2" height="2"/>
		<rect x="41.5" y="2" width="5" height="2"/>
		<rect x="46.5" width="5" height="2"/>
		<rect x="59.5" y="2" width="5" height="2"/>
		<rect x="64.5" width="5" height="2"/>
		<rect x="109.5" y="14" width="5" height="2"/>
		<rect x="116.5" y="18" width="8" height="2"/>
		<rect x="114.5" y="16" width="2" height="2"/>
		<rect x="124.5" y="20" width="2" height="5"/>
		<polygon points="124.5,38 1.5,38 1.5,33 -0.5,33 -0.5,38 -0.5,40 126.5,40 126.5,38 126.5,33 124.5,33 		"/>
		<rect x="126.5" y="25" width="2" height="8"/>
		<rect x="51.5" y="2" width="2" height="2"/>
		<rect x="57.5" y="4" width="2" height="2"/>
		<rect x="69.5" y="2" width="2" height="2"/>
		<polygon points="55.5,14 55.5,8 57.5,8 57.5,6 55.5,6 55.5,4 53.5,4 53.5,14 		"/>
		<polygon points="73.5,14 73.5,8 75.5,8 75.5,6 73.5,6 73.5,4 71.5,4 71.5,14 		"/>
		<rect x="77.5" y="2" width="5" height="2"/>
		<rect x="82.5" width="5" height="2"/>
		<rect x="75.5" y="4" width="2" height="2"/>
		<rect x="87.5" y="2" width="2" height="2"/>
		<polygon points="91.5,14 91.5,8 93.5,8 93.5,6 91.5,6 91.5,4 89.5,4 89.5,14 		"/>
		<rect x="95.5" y="2" width="5" height="2"/>
		<rect x="100.5" width="5" height="2"/>
		<rect x="93.5" y="4" width="2" height="2"/>
		<rect x="105.5" y="2" width="2" height="2"/>
		<rect x="107.5" y="4" width="2" height="10"/>
		<polygon points="8.5,28 8.5,26 8.5,21 6.5,21 6.5,26 3.5,26 3.5,28 6.5,28 		"/>
		<rect x="10.5" y="14" width="7" height="2"/>
	</g>
</g>
</svg>
