<?xml version="1.0" encoding="utf-8"?>
<!-- Generator: Adobe Illustrator 15.0.0, SVG Export Plug-In . SVG Version: 6.00 Build 0)  -->
<!DOCTYPE svg PUBLIC "-//W3C//DTD SVG 1.1//EN" "http://www.w3.org/Graphics/SVG/1.1/DTD/svg11.dtd">
<svg version="1.1" id="Layer_1" xmlns="http://www.w3.org/2000/svg" xmlns:xlink="http://www.w3.org/1999/xlink" x="0px" y="0px"
	 width="22px" height="22px" viewBox="0 0 22 22" style="enable-background:new 0 0 22 22;" xml:space="preserve">
<style type="text/css">
<![CDATA[
	.st0{fill:#FFFFFF;}
]]>
</style>
<g>
	<path class="st0" d="M21.5,4.485c-0.772,0.342-1.604,0.574-2.475,0.68c0.889-0.534,1.571-1.379,1.896-2.384
		c-0.834,0.492-1.758,0.853-2.736,1.044c-0.786-0.837-1.906-1.36-3.147-1.36c-2.379,0-4.308,1.93-4.308,4.309
		c0,0.339,0.039,0.668,0.112,0.981C7.262,7.576,4.085,5.86,1.961,3.254C1.591,3.891,1.377,4.63,1.377,5.42
		c0,1.495,0.76,2.814,1.916,3.587C2.588,8.985,1.922,8.792,1.342,8.47C1.341,8.486,1.341,8.505,1.341,8.522
		c0,2.089,1.485,3.829,3.456,4.226c-0.361,0.098-0.742,0.151-1.135,0.151c-0.277,0-0.547-0.028-0.811-0.078
		c0.549,1.712,2.14,2.959,4.025,2.993c-1.475,1.157-3.333,1.847-5.352,1.847c-0.347,0-0.689-0.021-1.025-0.063
		c1.906,1.224,4.17,1.938,6.604,1.938c7.926,0,12.261-6.566,12.261-12.261c0-0.188-0.006-0.373-0.014-0.558
		C20.19,6.108,20.922,5.351,21.5,4.485L21.5,4.485z"/>
</g>
</svg>
